PathFileType	4	(X/Y/Z)	/Users/itak/Documents/Research/Walk-IL/dataset/trc/00154_00007.trc
DataRate	CameraRate	NumFrames	NumMarkers	Units	OrigDataRate	OrigDataStartFrame	OrigNumFrames
100.000000	100.000000	4	53	mm	100.000000	315	504
Frame#	Time	RPSI			LPSI			L3			STRN			T10			C7			CLAV			RBAK			LBAK			LSHO			LUPA			LAEL			LAOL			LWTS			LWPS			LFRA			LIFD			LHPS			LHTS			RSHO			RUPA			RAEL			RAOL			RWTS			RWPS			RFRA			RIFD			RHTS			RHPS			RBHD			LFHD			RFHD			LBHD			LHIP			RHIP			RASI			LASI			LKNE			LTHI			LANK			LTIP			LTOE			LMT1			LMT5			LHEE			RKNE			RTHI			RANK			RTIP			RTOE			RMT1			RMT5			RHEE			
		X1	Y1	Z1	X2	Y2	Z2	X3	Y3	Z3	X4	Y4	Z4	X5	Y5	Z5	X6	Y6	Z6	X7	Y7	Z7	X8	Y8	Z8	X9	Y9	Z9	X10	Y10	Z10	X11	Y11	Z11	X12	Y12	Z12	X13	Y13	Z13	X14	Y14	Z14	X15	Y15	Z15	X16	Y16	Z16	X17	Y17	Z17	X18	Y18	Z18	X19	Y19	Z19	X20	Y20	Z20	X21	Y21	Z21	X22	Y22	Z22	X23	Y23	Z23	X24	Y24	Z24	X25	Y25	Z25	X26	Y26	Z26	X27	Y27	Z27	X28	Y28	Z28	X29	Y29	Z29	X30	Y30	Z30	X31	Y31	Z31	X32	Y32	Z32	X33	Y33	Z33	X34	Y34	Z34	X35	Y35	Z35	X36	Y36	Z36	X37	Y37	Z37	X38	Y38	Z38	X39	Y39	Z39	X40	Y40	Z40	X41	Y41	Z41	X42	Y42	Z42	X43	Y43	Z43	X44	Y44	Z44	X45	Y45	Z45	X46	Y46	Z46	X47	Y47	Z47	X48	Y48	Z48	X49	Y49	Z49	X50	Y50	Z50	X51	Y51	Z51	X52	Y52	Z52	X53	Y53	Z53	

316	3.15	178.7187652587891	1109.604614257812	-111.5207901000977	281.7740478515625	1111.4560546875	-193.5601806640625	223.5323791503906	1148.309326171875	-160.4740905761719	348.1649475097656	1353.246337890625	21.12245178222656	203.8345031738281	1300.366088867188	-187.5723571777344	228.0302276611328	1593.289672851562	-162.7325744628906	325.9916687011719	1487.326171875	-10.0533561706543	129.6189727783203	1406.249389648438	-158.4579467773438	308.6444702148438	1576.511962890625	-226.7264862060547	413.1898803710938	1564.12646484375	-194.2165069580078	462.2040100097656	1434.915161132812	-252.3192138671875	495.9485168457031	1217.5302734375	-257.283447265625	411.0864562988281	1201.961059570312	-277.0680236816406	529.8152465820312	961.6185913085938	-149.8973083496094	506.3894653320312	934.04931640625	-231.4951477050781	513.7246704101562	1101.647583007812	-246.7853240966797	534.8018798828125	769.5603637695312	-124.9763031005859	527.0020141601562	860.5540771484375	-207.1418762207031	552.02392578125	874.8452758789062	-143.5535125732422	111.0126724243164	1571.088256835938	-13.92106437683105	51.59585571289062	1496.413452148438	7.464248657226562	33.24208068847656	1201.230346679688	15.51692581176758	112.0265426635742	1200.516967773438	-42.40522003173828	133.9035491943359	969.7321166992188	143.2470092773438	66.6517333984375	947.3702392578125	98.54219818115234	35.68966674804688	1130.158447265625	47.65556335449219	170.6813659667969	778.349365234375	166.2630615234375	149.632568359375	864.2589111328125	177.1623077392578	89.29691314697266	850.7142944335938	137.4984893798828	183.7410125732422	1763.879760742188	-84.54933166503906	371.77978515625	1829.734497070312	12.97518730163574	255.1429901123047	1821.927368164062	70.19517517089844	302.5795593261719	1775.936279296875	-148.3846282958984	429.4240417480469	1027.110961914062	-174.3847351074219	155.2247467041016	1018.7255859375	61.41067886352539	243.2540740966797	1094.682495117188	95.00440216064453	451.5544738769531	1097.10302734375	-65.66355133056641	511.6366577148438	531.2117309570312	-45.81398010253906	493.149658203125	677.6892700195312	-103.8010482788086	305.1664123535156	181.4582977294922	-392.8661804199219	412.891845703125	375.310302734375	-249.8999481201172	390.97705078125	49.87124633789062	-231.7812194824219	321.8252868652344	85.80702209472656	-251.8686981201172	386.5328979492188	102.3586349487305	-347.4246826171875	221.6846313476562	220.7679595947266	-387.8487548828125	248.9562377929688	529.3048095703125	40.89269256591797	196.1358795166016	804.5524291992188	76.79222106933594	297.4242248535156	25.9411563873291	-62.94662475585938	247.1590881347656	394.3877868652344	24.36860847473145	443.7196960449219	41.52304458618164	124.7489700317383	455.5027770996094	36.74570083618164	51.47787094116211	334.7366943359375	40.11830520629883	66.94191741943359	315.8336791992188	28.90656280517578	-134.2590179443359	
317	3.16	184.4948272705078	1109.821411132812	-106.4951477050781	287.4924621582031	1111.9150390625	-187.4931793212891	228.0142059326172	1148.853637695312	-155.3079376220703	351.3688659667969	1353.913696289062	28.06509971618652	208.9245147705078	1300.893188476562	-181.9932250976562	232.9223785400391	1593.817626953125	-156.9954833984375	329.7314758300781	1487.990844726562	-3.543190956115723	134.1208190917969	1406.931640625	-153.4362945556641	313.8923034667969	1576.989990234375	-220.3844604492188	418.3057250976562	1564.633544921875	-187.1629180908203	467.4461669921875	1435.405883789062	-245.1854858398438	500.4244689941406	1217.947875976562	-250.6882019042969	415.59130859375	1202.72607421875	-270.7778625488281	533.0245361328125	961.480712890625	-144.1613616943359	509.62939453125	934.2890014648438	-225.8644409179688	517.753173828125	1101.965209960938	-240.5578765869141	537.1675415039062	769.3101806640625	-119.9331665039062	529.9230346679688	860.636474609375	-201.7569580078125	554.9208374023438	874.6278076171875	-138.1144256591797	114.8562774658203	1571.924194335938	-9.042288780212402	55.27323913574219	1497.316040039062	12.25780773162842	37.31268692016602	1201.975952148438	22.52214050292969	116.1443328857422	1200.95166015625	-35.25848007202148	138.6024932861328	972.519287109375	153.3029937744141	71.74009704589844	949.2334594726562	108.6072845458984	39.90819931030273	1131.0712890625	55.36175155639648	176.2647552490234	781.7506103515625	179.1541137695312	154.7659606933594	867.7028198242188	188.7472229003906	94.67497253417969	853.2639770507812	148.9566650390625	188.324462890625	1764.7333984375	-78.68457794189453	376.0107421875	1830.013305664062	19.64828681945801	259.1452026367188	1822.347290039062	76.39440155029297	307.3636474609375	1776.608764648438	-142.0769653320312	435.1780090332031	1028.06787109375	-165.8892517089844	157.2431640625	1018.684753417969	65.0726318359375	244.7199249267578	1094.896484375	100.6890182495117	455.3237609863281	1098.103393554688	-56.9686279296875	519.3059692382812	534.5991821289062	-29.20219039916992	500.7910766601562	679.9761962890625	-89.83285522460938	325.365234375	176.3136749267578	-373.7578735351562	426.3365173339844	374.486328125	-232.5610046386719	412.1975402832031	50.44300842285156	-208.6012573242188	342.2745361328125	84.07817840576172	-230.5885925292969	408.5126647949219	100.9379653930664	-325.0656433105469	240.4510650634766	212.8403472900391	-371.2381286621094	249.7332153320312	529.0965576171875	42.7463493347168	197.7190246582031	804.419189453125	80.05070495605469	297.5220947265625	26.03365898132324	-62.98450088500977	247.8045043945312	394.3305053710938	25.44762992858887	443.9200134277344	41.22830200195312	124.9278030395508	455.5575561523438	36.63668823242188	51.51458358764648	334.7103881835938	40.06758117675781	66.985107421875	316.1338806152344	28.98491477966309	-134.2280120849609	
318	3.17	190.5572662353516	1110.02099609375	-101.473274230957	293.2331237792969	1112.397583007812	-181.4365692138672	232.8536987304688	1149.350219726562	-150.1022033691406	354.4582824707031	1354.508422851562	35.04554748535156	214.0084228515625	1301.403442382812	-176.3725280761719	237.8543548583984	1594.328125	-151.2887420654297	333.381591796875	1488.584106445312	2.996162176132202	138.6226043701172	1407.608520507812	-148.5179595947266	319.1981811523438	1577.405883789062	-214.0037384033203	423.4640197753906	1565.04638671875	-180.0062561035156	472.7361755371094	1435.817749023438	-237.96923828125	504.9519958496094	1218.294555664062	-244.0950622558594	420.1763000488281	1203.40673828125	-264.5882568359375	536.2247314453125	961.3123168945312	-138.3451690673828	512.9906005859375	934.4674682617188	-220.1784515380859	521.845947265625	1102.2158203125	-234.3108673095703	539.361328125	769.0231323242188	-114.6937255859375	532.890380859375	860.6485595703125	-196.2448425292969	557.7454223632812	874.355712890625	-132.5133972167969	118.6416397094727	1572.743530273438	-4.254277229309082	58.84903717041016	1498.195556640625	16.88590240478516	41.28820037841797	1202.702514648438	29.3549861907959	120.2021713256836	1201.379272460938	-28.25006294250488	143.2078552246094	975.3656005859375	163.1988220214844	76.76329040527344	951.122802734375	118.5221939086914	44.02643585205078	1132.015014648438	62.91386413574219	181.8383178710938	785.2794189453125	191.9224700927734	159.8462982177734	871.2484130859375	200.1913909912109	100.0122299194336	855.8731079101562	160.2798614501953	192.8760070800781	1765.522583007812	-72.86805725097656	380.1990356445312	1830.283813476562	26.27896118164062	263.1046142578125	1822.7578125	82.54263305664062	312.1295471191406	1777.22607421875	-135.8065948486328	440.8675231933594	1029.03271484375	-157.3881072998047	159.2838439941406	1018.6630859375	68.82984924316406	246.0864868164062	1095.101806640625	106.2808456420898	459.0164489746094	1099.062744140625	-48.2372932434082	526.4305419921875	538.04736328125	-12.87450408935547	508.0717468261719	682.3243408203125	-76.03059387207031	345.6307678222656	170.2691497802734	-353.7623901367188	439.6174926757812	373.2274169921875	-215.0529479980469	432.8457641601562	50.80725860595703	-184.0016021728516	362.337158203125	82.00710296630859	-208.1740417480469	430.1134643554688	98.70748901367188	-301.5348205566406	259.5616149902344	204.1023254394531	-353.9424133300781	250.6917114257812	528.9252319335938	44.63164901733398	199.3268280029297	804.2791748046875	83.25173187255859	297.63720703125	26.17078590393066	-63.04164505004883	248.6550445556641	394.2910766601562	26.58027839660645	444.1084899902344	40.92990112304688	125.1110916137695	455.6295471191406	36.51565933227539	51.55578231811523	334.7078552246094	40.03178024291992	67.02157592773438	316.5536804199219	29.03637886047363	-134.1811828613281	
319	3.18	196.8562622070312	1110.212768554688	-96.4805908203125	299.0066528320312	1112.89208984375	-175.3898468017578	238.0340423583984	1149.796020507812	-144.8683013916016	357.4327087402344	1355.02294921875	42.05553436279297	219.0787353515625	1301.8837890625	-170.7033538818359	242.8195953369141	1594.8095703125	-145.6053771972656	336.9437866210938	1489.099975585938	9.564974784851074	143.1453704833984	1408.269287109375	-143.6899871826172	324.55908203125	1577.7548828125	-207.5828704833984	428.6571960449219	1565.357055664062	-172.7486114501953	478.0697326660156	1436.140747070312	-230.6649169921875	509.53369140625	1218.564208984375	-237.4783935546875	424.846435546875	1203.998291015625	-258.4781188964844	539.41357421875	961.1011962890625	-132.4366149902344	516.4761962890625	934.5802001953125	-214.4334106445312	526.0078125	1102.391479492188	-228.0191040039062	541.425537109375	768.6942138671875	-109.2739334106445	535.924072265625	860.5872802734375	-190.6088409423828	560.5133056640625	874.02392578125	-126.7469024658203	122.3670654296875	1573.537353515625	0.4471614360809326	62.32753753662109	1499.04296875	21.35362243652344	45.16972732543945	1203.403564453125	36.02755355834961	124.1828536987305	1201.790771484375	-21.38567352294922	147.7280883789062	978.2521362304688	172.9122924804688	81.71542358398438	953.0291748046875	128.2776336669922	48.05216217041016	1132.983276367188	70.32270812988281	187.3919067382812	788.904296875	204.5202026367188	164.8562469482422	874.86181640625	211.4529113769531	105.2979583740234	858.5287475585938	171.4465789794922	197.4055023193359	1766.213623046875	-67.09684753417969	384.3423156738281	1830.547607421875	32.87034606933594	267.0165100097656	1823.159423828125	88.63876342773438	316.8845520019531	1777.770141601562	-129.5674133300781	446.5144348144531	1029.984619140625	-148.8677215576172	161.3458099365234	1018.663940429688	72.63848876953125	247.3609771728516	1095.282104492188	111.7720031738281	462.636474609375	1099.96533203125	-39.47494506835938	533.0171508789062	541.5036010742188	3.143808364868164	514.9953002929688	684.6947021484375	-62.41606140136719	365.8642883300781	163.4481353759766	-332.8475646972656	452.7280578613281	371.5216674804688	-197.3623657226562	452.8669738769531	51.03728866577148	-158.1190338134766	381.9523010253906	79.65264892578125	-184.7001342773438	451.2839050292969	95.82046508789062	-276.8974304199219	278.9173889160156	194.6758880615234	-335.8717041015625	251.8358001708984	528.7844848632812	46.56130218505859	200.9737091064453	804.1356811523438	86.41030120849609	297.7641906738281	26.3582592010498	-63.11740112304688	249.696533203125	394.2555236816406	27.77433204650879	444.2760009765625	40.63726043701172	125.2964096069336	455.7175903320312	36.38680648803711	51.60640716552734	334.7322387695312	40.01026153564453	67.05043029785156	317.0916748046875	29.05524635314941	-134.1212463378906	
